<?xml version="1.0" encoding="utf-8"?>
<!-- Generator: Adobe Illustrator 26.3.1, SVG Export Plug-In . SVG Version: 6.00 Build 0)  -->
<svg version="1.1" id="Capa_1" xmlns="http://www.w3.org/2000/svg" xmlns:xlink="http://www.w3.org/1999/xlink" x="0px" y="0px"
	 viewBox="0 0 1111.15 1080" style="enable-background:new 0 0 1111.15 1080;" xml:space="preserve">
<style type="text/css">
	.st0{fill:url(#SVGID_1_);}
	.st1{fill:url(#SVGID_00000042707451213420729890000017346741210646068105_);}
	.st2{fill:#E94E1B;}
	.st3{fill:url(#SVGID_00000088119085430596650810000007019074980692658875_);}
	.st4{fill:url(#SVGID_00000040544680566423708060000012182901677831375021_);}
</style>
<linearGradient id="SVGID_1_" gradientUnits="userSpaceOnUse" x1="812.1679" y1="928.3265" x2="78.3435" y2="270.6021" gradientTransform="matrix(1 0 0 -1 0 814)">
	<stop  offset="0" style="stop-color:#C1E9F5"/>
	<stop  offset="1" style="stop-color:#65B1F5"/>
</linearGradient>
<path class="st0" d="M4.42,522.69l336.07,10.06l28.9,0.89l10.34,0.31c15.2,0.43,29.76-7,36.98-19.97c0.37-0.64,0.7-1.28,1.04-1.96
	c4.28-8.75,5.05-18.26,2.91-27.04c-1.56-6.21-4.8-11.93-9.05-16.82l-3.09-3.55l-22.14-25.36L166.86,187.51
	c-18.66,21.07-43.68,49.82-63.8,72.98l152.47,174.89L22.62,428.4C16.5,459.44,9.29,496.7,4.42,522.69z"/>
<linearGradient id="SVGID_00000046327445489636359930000005214344484373501067_" gradientUnits="userSpaceOnUse" x1="1131.699" y1="571.8249" x2="397.8742" y2="-85.8991" gradientTransform="matrix(1 0 0 -1 0 814)">
	<stop  offset="0" style="stop-color:#C1E9F5"/>
	<stop  offset="1" style="stop-color:#65B1F5"/>
</linearGradient>
<path style="fill:url(#SVGID_00000046327445489636359930000005214344484373501067_);" d="M939.84,174.57L720.45,429.32l-18.9,21.9
	l-6.73,7.83c-9.91,11.53-13.27,27.53-7.74,41.32c0.28,0.67,0.55,1.35,0.89,2.02c4.1,8.84,11.01,15.41,19.21,19.3
	c5.81,2.69,12.3,3.76,18.78,3.55l4.68-0.15l33.64-1.22l333.84-12.02c-4.65-27.77-11.22-65.3-16.55-95.49l-231.87,8.35l152.07-176.57
	C981.34,223.82,956.97,194.7,939.84,174.57z"/>
<path class="st2" d="M362.64,32.2l131.91,309.28l11.35,26.61l4.07,9.51c5.96,14.01,18.84,24.01,33.64,25.17
	c0.7,0.03,1.47,0.09,2.2,0.12c9.73,0.24,18.69-3.06,25.78-8.75c5.02-4.01,8.78-9.36,11.44-15.26l1.9-4.28l13.76-30.74L735.1,38.93
	c-26.98-8.07-63.56-18.72-93.01-27.28l-94.75,211.8L455.92,9.11C425.18,16.63,388.3,25.69,362.64,32.2z"/>
<linearGradient id="SVGID_00000180338968079870374760000004090101774815300023_" gradientUnits="userSpaceOnUse" x1="1254.9932" y1="434.2647" x2="521.1691" y2="-223.4597" gradientTransform="matrix(1 0 0 -1 0 814)">
	<stop  offset="0" style="stop-color:#C1E9F5"/>
	<stop  offset="1" style="stop-color:#65B1F5"/>
</linearGradient>
<path style="fill:url(#SVGID_00000180338968079870374760000004090101774815300023_);" d="M961.83,916.51L707.09,697.12l-21.9-18.9
	l-7.83-6.73c-11.53-9.91-27.53-13.27-41.32-7.74c-0.67,0.28-1.35,0.55-2.02,0.89c-8.84,4.1-15.41,11.01-19.3,19.21
	c-2.69,5.81-3.76,12.3-3.55,18.78l0.15,4.68l1.22,33.64l12.02,333.84c27.77-4.65,65.3-11.22,95.49-16.55l-8.35-231.87l176.57,152.07
	C912.59,958.04,941.71,933.67,961.83,916.51z"/>
<linearGradient id="SVGID_00000173144007562040280320000009476730069363544720_" gradientUnits="userSpaceOnUse" x1="1145.3892" y1="556.5504" x2="411.5648" y2="-101.174" gradientTransform="matrix(1 0 0 -1 0 814)">
	<stop  offset="0" style="stop-color:#C1E9F5"/>
	<stop  offset="1" style="stop-color:#65B1F5"/>
</linearGradient>
<path style="fill:url(#SVGID_00000173144007562040280320000009476730069363544720_);" d="M492.26,1074.6l11.01-336.04l0.95-28.9
	l0.31-10.34c0.49-15.2-6.91-29.76-19.88-37.01c-0.64-0.37-1.28-0.7-1.96-1.04c-8.75-4.28-18.26-5.14-27.04-3
	c-6.21,1.5-11.93,4.77-16.82,8.99l-3.55,3.06l-25.45,22.08L157.41,911.22c21.04,18.69,49.67,43.83,72.76,63.98l175.34-152.01
	l-7.65,232.91C429.01,1062.31,466.26,1069.65,492.26,1074.6z"/>
</svg>
